<svg width="320" height="120" viewBox="0 0 320 120" fill="none" xmlns="http://www.w3.org/2000/svg">
  <defs>
    <linearGradient id="flameGradient" x1="32" y1="8" x2="100" y2="112" gradientUnits="userSpaceOnUse">
      <stop stop-color="#3CC0FF"/>
      <stop offset="1" stop-color="#0070E0"/>
    </linearGradient>
    <linearGradient id="documentGradient" x1="64" y1="40" x2="110" y2="88" gradientUnits="userSpaceOnUse">
      <stop stop-color="#FFFFFF" stop-opacity="0.98"/>
      <stop offset="1" stop-color="#E3F2FF"/>
    </linearGradient>
  </defs>
  <rect width="320" height="120" fill="none"/>
  <g transform="translate(20,12)">
    <path d="M62 3c8 8 14 21 12 33 8-2 20 4 20 20 0 16-12 30-36 36C34 84 18 72 12 56 6 42 12 23 26 12c0 10 4 18 12 24-2-16 3-29 24-33Z" fill="url(#flameGradient)"/>
    <path d="M38 35c-2 0-4 2-4 4v38c0 2 2 4 4 4h44c2 0 4-2 4-4V51L69 35H38Z" fill="url(#documentGradient)"/>
    <path d="M69 35v12h12" fill="#C4E5FF"/>
    <circle cx="48" cy="56" r="5" fill="#0F4C81" opacity=".8"/>
    <rect x="58" y="50" width="24" height="3.4" rx="1.7" fill="#0F4C81" opacity=".4"/>
    <rect x="58" y="58" width="24" height="3.4" rx="1.7" fill="#0F4C81" opacity=".4"/>
    <rect x="58" y="66" width="18" height="3.4" rx="1.7" fill="#0F4C81" opacity=".35"/>
  </g>
  <text x="140" y="78" font-family="Montserrat, 'Segoe UI', Helvetica, Arial, sans-serif" font-weight="600" font-size="36" fill="#111827">
    ResuForge
  </text>
</svg>
